<svg class="logo" height="100%" viewBox="0 0 75 95" version="1.1" xmlns="http://www.w3.org/2000/svg" xmlns:xlink="http://www.w3.org/1999/xlink" xml:space="preserve" xmlns:serif="http://www.serif.com/" style="fill-rule:evenodd;clip-rule:evenodd;stroke-linejoin:round;stroke-miterlimit:2;height: 10%;cursor: pointer;">
        <g transform="matrix(1,0,0,1,-1459,-575)">
          <g transform="matrix(1.33333,0,0,1.33333,0,0)">
            <g id="favicon_black" transform="matrix(1,0,0,1,1122.19,502.142)">
              <path d="M0,-70.152C-15.345,-70.152 -27.829,-57.668 -27.829,-42.323C-27.829,-33.187 -19.468,-21.395 -12.454,-13.113C-11.277,-11.727 -7.501,-7.665 -7.501,-7.665L-0.309,-15.123C1.456,-16.963 2.442,-19.414 2.442,-21.964L2.442,-26.04L10.477,-34.069C10.802,-33.992 11.14,-33.947 11.487,-33.947C13.913,-33.947 15.886,-35.92 15.886,-38.346C15.886,-40.772 13.913,-42.744 11.487,-42.744C9.063,-42.744 7.09,-40.772 7.09,-38.346C7.09,-37.96 7.145,-37.589 7.238,-37.233L2.442,-32.442L2.442,-50.33C3.705,-51.102 4.554,-52.493 4.554,-54.08C4.554,-56.506 2.581,-58.479 0.157,-58.479C-2.269,-58.479 -4.242,-56.506 -4.242,-54.08C-4.242,-52.475 -3.375,-51.072 -2.087,-50.304L-2.087,-38.764L-6.966,-43.636C-6.864,-44.006 -6.806,-44.395 -6.806,-44.798C-6.806,-47.223 -8.777,-49.196 -11.203,-49.196C-13.628,-49.196 -15.602,-47.223 -15.602,-44.798C-15.602,-42.371 -13.628,-40.399 -11.203,-40.399C-10.873,-40.399 -10.552,-40.438 -10.242,-40.507L-2.087,-32.36L-2.087,-21.96C-2.087,-20.581 -2.621,-19.253 -3.577,-18.258L-7.361,-14.348L-9.435,-16.553C-11.82,-19.399 -13.955,-22.182 -15.78,-24.828C-19.28,-29.904 -23.3,-36.482 -23.3,-42.323C-23.3,-55.173 -12.848,-65.625 0,-65.625C12.85,-65.625 23.302,-55.173 23.302,-42.323C23.302,-36.489 19.272,-29.92 15.763,-24.849C12.946,-20.777 7.539,-13.789 0.233,-6.772L-3.218,-3.191C-1.812,-1.785 -0.681,-0.621 -0.017,0C6.775,-6.508 27.83,-27.86 27.83,-42.323C27.83,-57.668 15.346,-70.152 0,-70.152" style="fill-rule:nonzero;"></path>
            </g>
          </g>
        </g>
      </svg>